<svg width="512" height="512" xmlns="http://www.w3.org/2000/svg"><g fill-rule="nonzero" fill="none"><path d="M83.824 197.054c60.736-106.24 91.104-159.359 132.332-174.13a118.103 118.103 0 0179.688 0c41.228 14.771 71.596 67.89 132.332 174.13 60.348 105.558 90.52 158.338 82.572 201.444-4.97 26.946-19.024 51.35-39.8 69.102C437.714 496 377.142 496 256 496c-121.143 0-181.714 0-214.948-28.4-20.775-17.752-34.83-42.156-39.8-69.102-7.949-43.106 22.225-95.886 82.572-201.444z" fill="#FA5B30"/><path d="M340.824 350.606c-29.342 47.036-44.014 70.556-63.488 77.644-13.742 5-28.93 5-42.672 0-19.474-7.088-34.146-30.608-63.488-77.644-30.58-49.022-45.87-73.532-42.786-93.658 2.175-14.182 9.84-27.07 21.483-36.114C166.39 208 196.26 208 256 208c59.74 0 89.608 0 106.128 12.834 11.642 9.044 19.308 21.932 21.482 36.114 3.084 20.126-12.206 44.636-42.786 93.658z" fill="#FFF"/></g></svg>